<svg xmlns="http://www.w3.org/2000/svg" viewBox="0 0 1600 1000" role="img" aria-label="Tutor orbit visualization">
  <defs>
    <linearGradient id="bg" x1="0" y1="0" x2="1" y2="1">
      <stop offset="0%" stop-color="#060a17" />
      <stop offset="60%" stop-color="#09152c" />
      <stop offset="100%" stop-color="#03060d" />
    </linearGradient>
    <radialGradient id="core" cx="50%" cy="50%" r="55%">
      <stop offset="0%" stop-color="#64dcff" stop-opacity="0.42" />
      <stop offset="40%" stop-color="#64dcff" stop-opacity="0.12" />
      <stop offset="100%" stop-color="#64dcff" stop-opacity="0" />
    </radialGradient>
    <linearGradient id="panel" x1="0" y1="0" x2="0" y2="1">
      <stop offset="0%" stop-color="#101d39" stop-opacity="0.92" />
      <stop offset="100%" stop-color="#0a1224" stop-opacity="0.96" />
    </linearGradient>
    <linearGradient id="blue" x1="0" y1="0" x2="1" y2="0">
      <stop offset="0%" stop-color="#54d9ff" />
      <stop offset="100%" stop-color="#6e92ff" />
    </linearGradient>
    <linearGradient id="green" x1="0" y1="0" x2="1" y2="0">
      <stop offset="0%" stop-color="#30e0a0" />
      <stop offset="100%" stop-color="#82f7c3" />
    </linearGradient>
    <linearGradient id="amber" x1="0" y1="0" x2="1" y2="0">
      <stop offset="0%" stop-color="#ffb84d" />
      <stop offset="100%" stop-color="#ffde93" />
    </linearGradient>
  </defs>
  <rect width="1600" height="1000" fill="url(#bg)" />
  <rect width="1600" height="1000" fill="url(#core)" />
  <g opacity="0.22" stroke="#9fb6d9" stroke-width="1">
    <path d="M90 220H1510M90 360H1510M90 500H1510M90 640H1510M90 780H1510" />
    <path d="M220 80V920M500 80V920M780 80V920M1060 80V920M1340 80V920" />
  </g>
  <g opacity="0.32" fill="none" stroke="#6be8ff" stroke-width="2">
    <circle cx="800" cy="500" r="250" />
    <circle cx="800" cy="500" r="360" />
  </g>
  <g transform="translate(615 350)">
    <circle cx="185" cy="150" r="128" fill="rgba(86,217,255,0.08)" />
    <circle cx="185" cy="150" r="78" fill="rgba(86,217,255,0.18)" />
    <circle cx="185" cy="150" r="28" fill="url(#blue)" />
    <text x="185" y="160" text-anchor="middle" fill="#edf4ff" font-family="Inter, system-ui, sans-serif" font-size="24" font-weight="700">Match</text>
    <path d="M185 16v58M185 226v58M51 150h58M261 150h58" stroke="#6be8ff" stroke-width="2" opacity="0.7" />
    <circle cx="185" cy="16" r="7" fill="#6be8ff" />
    <circle cx="185" cy="284" r="7" fill="#6be8ff" />
    <circle cx="51" cy="150" r="7" fill="#6be8ff" />
    <circle cx="319" cy="150" r="7" fill="#6be8ff" />
  </g>
  <g transform="translate(150 180)">
    <rect x="0" y="0" width="300" height="160" rx="28" fill="url(#panel)" stroke="rgba(145,170,215,0.22)" stroke-width="2"/>
    <circle cx="44" cy="48" r="16" fill="url(#blue)" />
    <text x="74" y="53" fill="#edf4ff" font-family="Inter, system-ui, sans-serif" font-size="22" font-weight="700">Maths</text>
    <text x="74" y="82" fill="#9fb0cb" font-family="Inter, system-ui, sans-serif" font-size="16">IGCSE tutor</text>
    <rect x="30" y="108" width="120" height="14" rx="7" fill="#153051" />
    <rect x="30" y="132" width="184" height="14" rx="7" fill="#153051" />
    <rect x="210" y="110" width="60" height="24" rx="12" fill="rgba(86,217,255,0.18)" />
  </g>
  <g transform="translate(1130 180)">
    <rect x="0" y="0" width="300" height="160" rx="28" fill="url(#panel)" stroke="rgba(145,170,215,0.22)" stroke-width="2"/>
    <circle cx="44" cy="48" r="16" fill="url(#green)" />
    <text x="74" y="53" fill="#edf4ff" font-family="Inter, system-ui, sans-serif" font-size="22" font-weight="700">Science</text>
    <text x="74" y="82" fill="#9fb0cb" font-family="Inter, system-ui, sans-serif" font-size="16">Weekend route</text>
    <rect x="30" y="108" width="160" height="14" rx="7" fill="#153051" />
    <rect x="30" y="132" width="120" height="14" rx="7" fill="#153051" />
    <rect x="210" y="110" width="60" height="24" rx="12" fill="rgba(48,224,160,0.18)" />
  </g>
  <g transform="translate(210 690)">
    <rect x="0" y="0" width="300" height="160" rx="28" fill="url(#panel)" stroke="rgba(145,170,215,0.22)" stroke-width="2"/>
    <circle cx="44" cy="48" r="16" fill="url(#amber)" />
    <text x="74" y="53" fill="#edf4ff" font-family="Inter, system-ui, sans-serif" font-size="22" font-weight="700">English</text>
    <text x="74" y="82" fill="#9fb0cb" font-family="Inter, system-ui, sans-serif" font-size="16">essay feedback</text>
    <rect x="30" y="108" width="150" height="14" rx="7" fill="#153051" />
    <rect x="30" y="132" width="190" height="14" rx="7" fill="#153051" />
    <rect x="210" y="110" width="60" height="24" rx="12" fill="rgba(255,184,77,0.18)" />
  </g>
  <g transform="translate(1080 690)">
    <rect x="0" y="0" width="300" height="160" rx="28" fill="url(#panel)" stroke="rgba(145,170,215,0.22)" stroke-width="2"/>
    <circle cx="44" cy="48" r="16" fill="url(#blue)" />
    <text x="74" y="53" fill="#edf4ff" font-family="Inter, system-ui, sans-serif" font-size="22" font-weight="700">Physics</text>
    <text x="74" y="82" fill="#9fb0cb" font-family="Inter, system-ui, sans-serif" font-size="16">after-school slot</text>
    <rect x="30" y="108" width="170" height="14" rx="7" fill="#153051" />
    <rect x="30" y="132" width="126" height="14" rx="7" fill="#153051" />
    <rect x="210" y="110" width="60" height="24" rx="12" fill="rgba(86,217,255,0.18)" />
  </g>
  <g opacity="0.78" fill="#eef7ff">
    <circle cx="150" cy="120" r="2.4" />
    <circle cx="336" cy="126" r="1.6" opacity="0.7" />
    <circle cx="520" cy="190" r="2" opacity="0.8" />
    <circle cx="1260" cy="120" r="2.4" opacity="0.88" />
    <circle cx="1460" cy="210" r="1.6" opacity="0.7" />
    <circle cx="1500" cy="760" r="2.2" opacity="0.86" />
    <circle cx="1360" cy="840" r="1.8" opacity="0.7" />
  </g>
</svg>
